<?xml version="1.0" encoding="UTF-8" standalone="no"?>
<svg viewBox="0 0 24 24" version="1.1" id="svg1" sodipodi:docname="Sun.svg" inkscape:version="1.3.2 (091e20e, 2023-11-25, custom)" xmlns:inkscape="http://www.inkscape.org/namespaces/inkscape" xmlns:sodipodi="http://sodipodi.sourceforge.net/DTD/sodipodi-0.dtd" xmlns:xlink="http://www.w3.org/1999/xlink" xmlns="http://www.w3.org/2000/svg" xmlns:svg="http://www.w3.org/2000/svg">
  <defs id="defs1">
    <linearGradient id="linearGradient4" inkscape:collect="always">
      <stop style="stop-color:#000000;stop-opacity:1;" offset="0.63338536" id="stop4" />
      <stop style="stop-color:#000000;stop-opacity:0;" offset="1" id="stop5" />
    </linearGradient>
    <linearGradient id="linearGradient2" inkscape:collect="always">
      <stop style="stop-color:#000000;stop-opacity:1;" offset="0.63494539" id="stop2" />
      <stop style="stop-color:#000000;stop-opacity:0;" offset="1" id="stop3" />
    </linearGradient>
    <linearGradient inkscape:collect="always" xlink:href="#linearGradient2" id="linearGradient3" x1="1" y1="12" x2="23" y2="12" gradientUnits="userSpaceOnUse" />
    <linearGradient inkscape:collect="always" xlink:href="#linearGradient4" id="linearGradient5" x1="1" y1="12" x2="23" y2="12" gradientUnits="userSpaceOnUse" />
  </defs>
  <sodipodi:namedview id="namedview1" pagecolor="#ffffff" bordercolor="#000000" borderopacity="0.25" inkscape:showpageshadow="2" inkscape:pageopacity="0.0" inkscape:pagecheckerboard="0" inkscape:deskcolor="#d1d1d1" inkscape:zoom="48.875" inkscape:cx="12" inkscape:cy="11.938619" inkscape:window-width="2560" inkscape:window-height="1369" inkscape:window-x="2552" inkscape:window-y="-8" inkscape:window-maximized="1" inkscape:current-layer="svg1" />
  <path fill="#000000" d="m 12,1 v 2 m 0,18 v 2 M 4.22,4.22 5.64,5.64 m 12.72,12.72 1.42,1.42 M 1,12 h 2 m 18,0 h 2 M 4.22,19.78 5.64,18.36 M 18.36,5.64 19.78,4.22 M 12,6 c -3.3137085,0 -6,2.6862915 -6,6 0,3.313708 2.6862915,6 6,6 3.313708,0 6,-2.686292 6,-6 0,-3.3137085 -2.686292,-6 -6,-6 z" id="path1" inkscape:label="path1" sodipodi:nodetypes="ccccccccccccccccsssss" style="stroke:url(#linearGradient3);stroke-opacity:1;stroke-width:1;stroke-dasharray:none;fill:url(#linearGradient5);stroke-linecap:round;stroke-linejoin:miter" />
</svg>
